<?xml version="1.0" standalone="no"?>
<!DOCTYPE svg PUBLIC "-//W3C//DTD SVG 20010904//EN"
 "http://www.w3.org/TR/2001/REC-SVG-20010904/DTD/svg10.dtd">
<svg version="1.0" xmlns="http://www.w3.org/2000/svg"
 width="500.000000pt" height="500.000000pt" viewBox="0 0 500.000000 500.000000"
 preserveAspectRatio="xMidYMid meet">
<metadata>
Created by potrace 1.14, written by Peter Selinger 2001-2017
</metadata>
<g transform="translate(0.000000,500.000000) scale(0.100000,-0.100000)"
fill="#000000" stroke="none">
<path d="M3559 4875 c-20 -8 -53 -20 -73 -29 -20 -8 -39 -15 -41 -15 -11 0
-155 -105 -155 -113 0 -4 -3 -7 -7 -6 -5 1 -27 -10 -50 -25 -29 -18 -45 -38
-52 -59 -5 -20 -10 -25 -10 -13 -1 16 -7 13 -41 -20 -22 -22 -38 -45 -36 -52
3 -7 -1 -10 -8 -7 -6 2 -43 -27 -81 -65 -69 -70 -100 -114 -91 -129 2 -4 -11
-18 -30 -31 -34 -24 -144 -168 -144 -190 0 -6 -13 -30 -29 -53 -16 -24 -27
-47 -24 -52 4 -5 1 -6 -4 -3 -14 9 -36 -18 -63 -78 -12 -27 -32 -68 -43 -89
-11 -21 -20 -53 -19 -70 0 -18 -2 -25 -7 -18 -5 8 -16 -11 -30 -53 -12 -37
-18 -71 -15 -77 5 -7 2 -8 -6 -3 -21 13 -5 -90 21 -134 11 -20 15 -30 8 -23
-25 24 -32 12 -8 -15 13 -15 16 -21 7 -14 -20 15 -25 2 -7 -16 6 -6 8 -20 5
-30 -5 -17 -28 -22 -179 -41 -94 -12 -217 -33 -272 -47 -122 -31 -307 -119
-354 -168 l-33 -35 11 -164 c13 -182 10 -177 101 -223 127 -64 321 -103 555
-111 390 -14 778 102 907 272 122 160 20 321 -262 413 -78 26 -255 58 -363 67
l-79 6 7 26 c10 40 20 46 71 43 49 -2 74 11 74 39 0 12 11 20 35 24 25 5 39
15 50 36 18 35 19 43 3 35 -7 -4 -4 1 7 10 11 8 31 39 45 68 18 37 32 53 48
55 13 2 36 22 55 47 27 38 36 44 59 39 15 -3 38 -2 50 2 21 7 20 9 -12 15
l-35 6 31 2 c17 0 37 8 44 16 8 9 30 15 57 15 62 0 104 21 149 74 46 55 58 91
43 128 -11 26 -44 46 -56 34 -4 -3 1 -6 10 -6 9 0 24 -11 33 -25 13 -20 14
-30 4 -59 -15 -46 -37 -65 -46 -40 -11 29 -35 54 -53 54 -10 0 -7 -5 9 -13 33
-16 40 -71 12 -86 -30 -16 -128 -25 -136 -13 -3 5 1 13 10 16 8 3 13 10 10 15
-3 5 0 11 8 14 17 7 28 47 13 47 -8 0 -7 4 1 12 7 7 12 19 11 28 0 9 -4 6 -9
-7 -10 -25 -29 -30 -47 -12 -8 8 -6 20 9 45 l20 34 -30 0 c-17 0 -33 4 -36 9
-3 4 6 6 20 3 30 -5 94 26 94 47 0 11 -3 10 -13 -4 -8 -10 -19 -15 -26 -10 -9
5 -7 11 8 22 26 18 27 33 2 33 -10 0 -29 9 -42 20 l-24 20 45 -20 c48 -21 120
-26 149 -10 10 5 26 22 36 37 l18 28 -25 -22 c-18 -17 -37 -23 -71 -23 -56 0
-64 20 -9 21 37 1 37 1 10 12 -36 14 -35 23 2 36 34 12 41 22 8 13 -14 -3 -19
-2 -14 6 4 7 20 12 35 12 29 0 89 39 62 40 -9 0 -4 9 13 25 14 13 26 30 25 37
0 7 -5 3 -11 -9 -14 -28 -49 -30 -72 -4 -16 17 -16 19 3 24 10 2 24 13 29 24
10 17 7 19 -26 16 l-37 -2 39 8 c39 8 70 36 60 52 -3 5 1 9 9 9 8 0 25 8 37
18 l23 18 -34 -4 c-20 -2 -42 3 -54 12 -19 14 -18 15 13 6 30 -8 37 -6 70 25
l37 34 -32 -9 c-18 -5 -33 -5 -33 -1 0 13 24 31 42 31 18 0 95 77 91 91 -2 5
1 9 6 9 13 0 48 62 56 99 4 17 5 30 3 30 -2 -1 -19 -7 -39 -14z m-12 -81 c-3
-3 -12 -4 -19 -1 -8 3 -5 6 6 6 11 1 17 -2 13 -5z m-34 -51 c-7 -2 -19 -2 -25
0 -7 3 -2 5 12 5 14 0 19 -2 13 -5z m-400 -400 c-7 -2 -19 -2 -25 0 -7 3 -2 5
12 5 14 0 19 -2 13 -5z m-20 -40 c-7 -2 -21 -2 -30 0 -10 3 -4 5 12 5 17 0 24
-2 18 -5z m-236 -65 c-3 -8 -6 -5 -6 6 -1 11 2 17 5 13 3 -3 4 -12 1 -19z
m-37 -73 c0 -5 -5 -3 -10 5 -5 8 -10 20 -10 25 0 6 5 3 10 -5 5 -8 10 -19 10
-25z m-63 -147 c-3 -8 -6 -5 -6 6 -1 11 2 17 5 13 3 -3 4 -12 1 -19z m369 -38
c29 0 32 -25 5 -40 -35 -18 -52 -13 -45 15 5 19 2 25 -9 25 -9 0 -19 4 -22 10
-4 7 3 7 20 0 15 -6 37 -10 51 -10z m-489 -72 c-3 -8 -6 -5 -6 6 -1 11 2 17 5
13 3 -3 4 -12 1 -19z m418 1 c5 -5 17 -9 27 -9 10 0 18 -5 18 -11 0 -12 -25
-8 -115 20 l-60 19 60 -5 c33 -3 64 -9 70 -14z m68 4 c-7 -2 -21 -2 -30 0 -10
3 -4 5 12 5 17 0 24 -2 18 -5z m-168 -47 c41 -10 46 -14 28 -20 -14 -4 -35 0
-60 14 -44 23 -37 25 32 6z m233 -3 c-10 -2 -28 -2 -40 0 -13 2 -5 4 17 4 22
1 32 -1 23 -4z m-123 -23 c3 -5 -1 -10 -9 -10 -9 0 -19 0 -23 -1 -4 0 -9 4
-11 10 -5 14 35 14 43 1z m-272 -27 c-7 -2 -21 -2 -30 0 -10 3 -4 5 12 5 17 0
24 -2 18 -5z m-196 -25 c-3 -8 -6 -5 -6 6 -1 11 2 17 5 13 3 -3 4 -12 1 -19z
m136 -95 c-7 -2 -19 -2 -25 0 -7 3 -2 5 12 5 14 0 19 -2 13 -5z m-195 -68 c-3
-3 -9 2 -12 12 -6 14 -5 15 5 6 7 -7 10 -15 7 -18z m22 -24 c0 -5 3 -18 6 -28
5 -16 4 -16 -10 1 -18 23 -20 36 -6 36 6 0 10 -4 10 -9z m138 -38 c-10 -2 -28
-2 -40 0 -13 2 -5 4 17 4 22 1 32 -1 23 -4z m-143 -150 c-3 -16 -10 -32 -15
-37 -5 -5 -4 7 2 27 13 43 23 50 13 10z m-3 -157 c4 -52 23 -91 84 -176 23
-32 24 -35 8 -39 -10 -2 -20 2 -22 8 -2 6 -8 9 -13 6 -5 -4 -6 2 -2 11 4 12 3
15 -5 10 -7 -4 -10 -2 -7 6 3 8 -2 22 -10 33 -15 19 -16 19 -5 -5 10 -23 10
-24 -4 -7 -8 11 -12 26 -9 35 4 9 2 13 -4 9 -7 -5 -9 1 -5 15 3 13 1 19 -5 15
-6 -4 -8 4 -6 21 4 21 2 24 -6 12 -8 -11 -11 -1 -11 43 0 72 16 75 22 3z m-97
-46 c-9 -41 -17 -33 -9 9 4 17 9 30 11 27 3 -2 2 -19 -2 -36z m-24 -63 c-10
-9 -11 -8 -5 6 3 10 9 15 12 12 3 -3 0 -11 -7 -18z m-31 -34 c-1 -15 -39 -58
-45 -51 -8 8 24 58 36 58 5 0 9 -3 9 -7z m20 -28 c-7 -14 -20 -25 -27 -25 -15
0 -10 13 15 43 21 24 28 13 12 -18z m108 18 c-10 -2 -26 -2 -35 0 -10 3 -2 5
17 5 19 0 27 -2 18 -5z m-176 -103 c-4 -38 -14 -50 -26 -31 -9 14 5 71 18 71
7 0 10 -14 8 -40z m38 5 c0 -24 -5 -35 -15 -35 -15 0 -20 26 -9 54 11 28 24
17 24 -19z m341 8 c13 -16 12 -17 -3 -4 -17 13 -22 21 -14 21 2 0 10 -8 17
-17z m-488 -42 c-3 -21 0 -49 6 -62 12 -23 11 -23 -3 -5 -16 20 -21 62 -10 90
10 26 12 18 7 -23z m417 -3 c0 -32 -15 -55 -23 -35 -7 19 2 57 14 57 5 0 9
-10 9 -22z m100 -22 c0 -26 -6 -18 -14 19 -5 22 -4 26 4 15 5 -8 10 -24 10
-34z"/>
<path d="M2612 3414 c9 -9 21 -15 27 -13 6 2 -2 10 -17 17 -25 11 -25 11 -10
-4z"/>
<path d="M3434 3000 c44 -63 86 -123 94 -133 24 -27 8 -31 -69 -13 -39 9 -77
16 -84 16 -11 0 -5 -69 21 -220 5 -30 4 -33 -8 -18 -7 10 -51 44 -97 77 l-85
60 -60 -32 c-34 -18 -111 -62 -172 -97 l-111 -65 -53 -101 -53 -101 -122 98
-122 99 -237 0 -236 0 -78 -42 -77 -41 -195 83 c-107 46 -196 84 -198 85 -5 4
51 194 79 265 16 41 29 78 29 82 0 4 -24 0 -52 -8 -46 -14 -69 -31 -176 -137
-185 -183 -248 -291 -246 -417 2 -97 33 -165 111 -250 41 -44 292 -249 679
-555 338 -267 617 -485 620 -485 2 0 211 195 462 433 251 238 511 484 577 546
178 168 240 260 252 375 7 66 -22 170 -65 234 -26 39 -306 303 -377 355 -22
16 -11 -5 49 -93z"/>
<path d="M1050 535 l0 -155 35 0 35 0 0 155 0 155 -35 0 -35 0 0 -155z"/>
<path d="M1216 548 c-27 -79 -51 -149 -54 -155 -3 -9 8 -13 36 -13 34 0 41 4
46 25 6 23 11 25 65 25 54 0 59 -2 65 -25 5 -21 12 -25 46 -25 l39 0 -53 153
-53 152 -44 3 -44 3 -49 -143z m104 17 c5 -14 13 -37 16 -50 6 -23 3 -25 -29
-25 l-35 0 16 50 c9 28 17 50 19 50 2 0 8 -11 13 -25z"/>
<path d="M1500 535 l0 -155 35 0 34 0 3 95 3 96 62 -96 c59 -90 64 -95 98 -95
l35 0 0 155 0 155 -35 0 -34 0 -3 -97 -3 -98 -62 98 c-60 92 -65 97 -98 97
l-35 0 0 -155z"/>
<path d="M2045 676 c-64 -28 -105 -106 -91 -173 17 -77 77 -123 158 -123 156
0 207 218 68 291 -40 22 -92 24 -135 5z m115 -74 c32 -26 38 -90 10 -124 -17
-22 -30 -28 -59 -28 -20 0 -45 6 -54 13 -38 27 -38 117 0 144 24 18 77 16 103
-5z"/>
<path d="M2317 683 c-4 -3 -7 -73 -7 -155 l0 -148 40 0 39 0 3 93 3 92 58 -92
c58 -92 59 -93 98 -93 l40 0 -3 153 -3 152 -35 0 -35 0 -5 -92 -5 -91 -60 94
c-54 85 -63 94 -91 94 -17 0 -34 -3 -37 -7z"/>
<path d="M2787 683 c-4 -3 -7 -73 -7 -155 l0 -148 40 0 39 0 3 63 3 62 35 -62
c34 -62 35 -63 78 -63 43 0 44 0 30 23 -8 12 -24 39 -37 59 l-23 38 31 26 c25
20 31 34 31 64 0 49 -25 79 -75 90 -47 11 -139 13 -148 3z m141 -65 c20 -20
14 -48 -14 -58 -46 -18 -54 -13 -54 30 0 37 2 40 28 40 15 0 33 -5 40 -12z"/>
<path d="M3106 548 c-27 -79 -51 -149 -54 -155 -3 -9 8 -13 36 -13 34 0 41 4
46 25 6 23 11 25 65 25 54 0 59 -2 65 -25 5 -21 12 -25 46 -25 l39 0 -53 153
-53 152 -44 3 -44 3 -49 -143z m104 17 c5 -14 13 -37 16 -50 6 -23 3 -25 -29
-25 l-35 0 16 50 c9 28 17 50 19 50 2 0 8 -11 13 -25z"/>
<path d="M3390 535 l0 -155 35 0 35 0 0 155 0 155 -35 0 -35 0 0 -155z"/>
<path d="M3530 535 l0 -155 80 0 80 0 0 30 c0 29 -2 30 -45 30 l-45 0 0 125 0
125 -35 0 -35 0 0 -155z"/>
<path d="M3773 671 c-36 -23 -50 -61 -37 -100 9 -25 20 -32 99 -68 49 -22 56
-56 12 -61 -18 -2 -29 2 -33 12 -8 21 -84 23 -84 2 0 -33 45 -68 93 -73 85
-10 147 40 132 107 -8 37 -21 47 -86 68 -46 15 -54 21 -54 42 0 18 6 26 23 28
13 2 25 -3 28 -12 4 -11 19 -16 45 -16 31 0 39 4 39 18 0 58 -115 92 -177 53z"/>
</g>
</svg>
